{
    "accessors": {
        "accessors_accessor_buffer_Cube_0": {
            "bufferView": "bufferViews_bufferView_buffer_Cube_0",
            "byteOffset": 0,
            "byteStride": 2,
            "componentType": 5123,
            "count": 72,
            "max": [41],
            "min": [0],
            "name": "accessor_buffer_Cube_0",
            "type": "SCALAR"
        },
        "accessors_accessor_buffer_Cube_NORMAL_0": {
            "bufferView": "bufferViews_bufferView_buffer_Cube_NORMAL_0",
            "byteOffset": 0,
            "byteStride": 12,
            "componentType": 5126,
            "count": 42,
            "max": [1,1,1],
            "min": [-1,-1,-0.965378],
            "name": "accessor_buffer_Cube_NORMAL_0",
            "type": "VEC3"
        },
        "accessors_accessor_buffer_Cube_POSITION_0": {
            "bufferView": "bufferViews_bufferView_buffer_Cube_POSITION_0",
            "byteOffset": 0,
            "byteStride": 12,
            "componentType": 5126,
            "count": 42,
            "max": [0.607504,0.302149,0.496298],
            "min": [-0.607504,-0.302149,-0.352936],
            "name": "accessor_buffer_Cube_POSITION_0",
            "type": "VEC3"
        }
    },
    "asset": {
        "profile": {
            "api": "WebGL",
            "version": "1.0"
        },
        "version": "1.0"
    },
    "bufferViews": {
        "bufferViews_bufferView_buffer_Cube_0": {
            "buffer": "buffers_buffer_housev1",
            "byteLength": 144,
            "byteOffset": 1008,
            "name": "bufferView_buffer_Cube_0",
            "target": 34963
        },
        "bufferViews_bufferView_buffer_Cube_NORMAL_0": {
            "buffer": "buffers_buffer_housev1",
            "byteLength": 504,
            "byteOffset": 504,
            "name": "bufferView_buffer_Cube_NORMAL_0",
            "target": 34962
        },
        "bufferViews_bufferView_buffer_Cube_POSITION_0": {
            "buffer": "buffers_buffer_housev1",
            "byteLength": 504,
            "byteOffset": 0,
            "name": "bufferView_buffer_Cube_POSITION_0",
            "target": 34962
        }
    },
    "buffers": {
        "buffers_buffer_housev1": {
            "byteLength": 1152,
            "name": "buffer_housev1",
            "type": "arraybuffer",
            "uri": "buffer_housev1.bin"
        }
    },
    "cameras": {
        "cameras_Camera": {
            "name": "Camera",
            "perspective": {
                "aspectRatio": 1.7036,
                "yfov": 0.50338,
                "zfar": 100,
                "znear": 0.1
            },
            "type": "perspective"
        }
    },
    "glExtensionsUsed": [],
    "materials": {
        "materials_Material": {
            "name": "Material",
            "technique": "techniques_Material",
            "values": {
                "diffuse_color": [0.8,0.8,0.8],
                "diffuse_intensity": 0.8,
                "specular_color": [1,1,1],
                "specular_hardness": 50,
                "specular_intensity": 0.5
            }
        }
    },
    "meshes": {
        "meshes_Cube": {
            "name": "Cube",
            "primitives": [{
                "attributes": {
                    "NORMAL": "accessors_accessor_buffer_Cube_NORMAL_0",
                    "POSITION": "accessors_accessor_buffer_Cube_POSITION_0"
                },
                "indices": "accessors_accessor_buffer_Cube_0",
                "material": "materials_Material",
                "mode": 4
            }]
        }
    },
    "nodes": {
        "nodes_Camera": {
            "camera": "cameras_Camera",
            "name": "Camera",
            "rotation": [0.481707,0.212922,0.334251,0.7816],
            "scale": [1,1,1],
            "translation": [7.48113,-6.50764,5.34367]
        },
        "nodes_Cube": {
            "meshes": ["meshes_Cube"],
            "name": "Cube",
            "rotation": [0,0,0,1],
            "scale": [1,1,1],
            "translation": [4.53023e-08,-8.98226e-09,-0.132827]
        },
        "nodes_Lamp": {
            "name": "Lamp",
            "rotation": [0.169076,0.272171,0.75588,0.570948],
            "scale": [1,1,1],
            "translation": [4.07625,1.00545,5.90386]
        },
        "nodes_Scene_root": {
            "children": ["nodes_Cube","nodes_Lamp","nodes_Camera"],
            "matrix": [-1,0,0,0,0,0,1,0,0,1,0,0,0,0,0,1],
            "name": "Scene_root"
        }
    },
    "programs": {
        "programs_Material": {
            "attributes": ["bl_Vertex","bl_Normal"],
            "fragmentShader": "shaders_MaterialFS",
            "name": "Material",
            "vertexShader": "shaders_MaterialVS"
        }
    },
    "scene": "scenes_Scene",
    "scenes": {
        "scenes_Scene": {
            "extras": {
                "active_camera": "cameras_Camera",
                "background_color": [0.0508761,0.0508761,0.0508761],
                "frames_per_second": 24
            },
            "name": "Scene",
            "nodes": ["nodes___scene_root_0_"]
        }
    },
    "shaders": {
        "shaders_MaterialFS": {
            "name": "MaterialFS",
            "type": 35632,
            "uri": "MaterialFS.glsl"
        },
        "shaders_MaterialVS": {
            "name": "MaterialVS",
            "type": 35633,
            "uri": "MaterialVS.glsl"
        }
    },
    "techniques": {
        "techniques_Material": {
            "attributes": {
                "bl_Normal": "bl_Normal",
                "bl_Vertex": "bl_Vertex"
            },
            "name": "Material",
            "parameters": {
                "Lamp_color": {
                    "type": 35665,
                    "value": [1,1,1]
                },
                "Lamp_distance": {
                    "type": 5126,
                    "value": 30
                },
                "Lamp_dynco": {
                    "node": "node_Lamp",
                    "semantic": "MODELVIEW",
                    "type": 35676
                },
                "Lamp_energy": {
                    "type": 5126,
                    "value": 1
                },
                "ambient_color": {
                    "type": 35666,
                    "value": [0,0,0]
                },
                "bl_ModelViewMatrix": {
                    "semantic": "MODELVIEW",
                    "type": 35676
                },
                "bl_Normal": {
                    "semantic": "NORMAL",
                    "type": 35665
                },
                "bl_NormalMatrix": {
                    "semantic": "MODELVIEWINVERSETRANSPOSE",
                    "type": 35675
                },
                "bl_ProjectionMatrix": {
                    "semantic": "PROJECTION",
                    "type": 35676
                },
                "bl_Vertex": {
                    "semantic": "POSITION",
                    "type": 35666
                },
                "diffuse_color": {
                    "type": 35665,
                    "value": [0.8,0.8,0.8]
                },
                "diffuse_intensity": {
                    "type": 5126,
                    "value": 0.8
                },
                "mist_color": {
                    "type": 35666,
                    "value": [0.0508761,0.0508761,0.0508761]
                },
                "mist_depth": {
                    "type": 5126,
                    "value": 25
                },
                "mist_falloff": {
                    "type": 5126,
                    "value": null
                },
                "mist_intensity": {
                    "type": 5126,
                    "value": null
                },
                "mist_start": {
                    "type": 5126,
                    "value": 5
                },
                "mist_use_mist": {
                    "type": 5126,
                    "value": null
                },
                "specular_color": {
                    "type": 35665,
                    "value": [1,1,1]
                },
                "specular_hardness": {
                    "type": 5126,
                    "value": 50
                },
                "specular_intensity": {
                    "type": 5126,
                    "value": 0.5
                }
            },
            "program": "programs_Material",
            "uniforms": {
                "bl_ModelViewMatrix": "bl_ModelViewMatrix",
                "bl_NormalMatrix": "bl_NormalMatrix",
                "bl_ProjectionMatrix": "bl_ProjectionMatrix",
                "light0_transform": "Lamp_dynco",
                "unf1": "diffuse_color",
                "unf14": "Lamp_distance",
                "unf24": "diffuse_intensity",
                "unf26": "Lamp_energy",
                "unf27": "Lamp_color",
                "unf47": "specular_hardness",
                "unf50": "specular_intensity",
                "unf56": "specular_color",
                "unf67": "ambient_color",
                "unf76": "mist_use_mist",
                "unf77": "mist_start",
                "unf78": "mist_depth",
                "unf79": "mist_falloff",
                "unf80": "mist_intensity",
                "unf84": "mist_color"
            }
        }
    }
}
